<?xml version="1.0" standalone="no"?>
<!DOCTYPE svg PUBLIC "-//W3C//DTD SVG 20010904//EN"
 "http://www.w3.org/TR/2001/REC-SVG-20010904/DTD/svg10.dtd">
<svg version="1.0" xmlns="http://www.w3.org/2000/svg"
 width="785.000000pt" height="785.000000pt" viewBox="0 0 785.000000 785.000000"
 preserveAspectRatio="xMidYMid meet">
<metadata>
Created by potrace 1.14, written by Peter Selinger 2001-2017
</metadata>
<g transform="translate(0.000000,785.000000) scale(0.100000,-0.100000)"
fill="#000000" stroke="none">
<path d="M3350 7375 c0 -24 -2 -25 -75 -25 -73 0 -75 -1 -75 -25 l0 -25 -150
0 -150 0 0 -25 c0 -23 -3 -25 -50 -25 -47 0 -50 -2 -50 -25 0 -20 -5 -25 -25
-25 -20 0 -25 -5 -25 -25 0 -20 -5 -25 -25 -25 -23 0 -25 -3 -25 -50 l0 -50
-50 0 c-47 0 -50 -2 -50 -25 0 -23 -3 -25 -50 -25 -47 0 -50 -2 -50 -25 0 -20
-5 -25 -25 -25 -20 0 -25 -5 -25 -25 0 -20 -5 -25 -25 -25 -20 0 -25 -5 -25
-25 0 -23 -3 -25 -50 -25 -47 0 -50 -2 -50 -25 0 -24 -2 -25 -75 -25 -73 0
-75 1 -75 25 l0 25 -100 0 -100 0 0 -25 c0 -23 -3 -25 -50 -25 -47 0 -50 -2
-50 -25 0 -23 -3 -25 -50 -25 -47 0 -50 -2 -50 -25 0 -20 -5 -25 -25 -25 -20
0 -25 -5 -25 -25 0 -20 -5 -25 -25 -25 -20 0 -25 -5 -25 -25 0 -20 -5 -25 -25
-25 -20 0 -25 -5 -25 -25 0 -20 -5 -25 -25 -25 -20 0 -25 -5 -25 -25 0 -20 -5
-25 -25 -25 -20 0 -25 -5 -25 -25 0 -20 -5 -25 -25 -25 -24 0 -25 -2 -25 -75
0 -73 -1 -75 -25 -75 -24 0 -25 -2 -25 -75 0 -73 1 -75 25 -75 l25 0 0 -100 0
-100 25 0 c23 0 25 -3 25 -50 0 -47 -2 -50 -25 -50 -20 0 -25 -5 -25 -25 0
-20 -5 -25 -25 -25 -23 0 -25 -3 -25 -50 0 -47 -2 -50 -25 -50 -23 0 -25 -3
-25 -50 0 -47 -2 -50 -25 -50 -24 0 -25 -2 -25 -75 0 -73 -1 -75 -25 -75 -24
0 -25 -2 -25 -75 0 -73 -1 -75 -25 -75 -23 0 -25 -3 -25 -50 0 -47 -2 -50 -25
-50 -24 0 -25 -2 -25 -75 0 -73 -1 -75 -25 -75 -23 0 -25 -3 -25 -50 0 -47 2
-50 25 -50 23 0 25 -3 25 -50 0 -47 -2 -50 -25 -50 -24 0 -25 -2 -25 -75 0
-73 -1 -75 -25 -75 -24 0 -25 -2 -25 -75 0 -73 1 -75 25 -75 23 0 25 -3 25
-50 0 -47 2 -50 25 -50 l25 0 0 -125 0 -125 25 0 25 0 0 -100 0 -100 -25 0
-25 0 0 -100 0 -100 -25 0 -25 0 0 -125 0 -125 -25 0 -25 0 0 -150 0 -150 -25
0 c-20 0 -25 -5 -25 -25 0 -20 -5 -25 -25 -25 -24 0 -25 -2 -25 -75 0 -73 -1
-75 -25 -75 l-25 0 0 -100 0 -100 -25 0 -25 0 0 -100 0 -100 -25 0 c-20 0 -25
-5 -25 -25 0 -20 -5 -25 -25 -25 -24 0 -25 -2 -25 -75 0 -73 -1 -75 -25 -75
-20 0 -25 -5 -25 -25 0 -20 -5 -25 -25 -25 -23 0 -25 -3 -25 -50 0 -47 -2 -50
-25 -50 -20 0 -25 -5 -25 -25 0 -20 -5 -25 -25 -25 -20 0 -25 -5 -25 -25 0
-20 -5 -25 -25 -25 -20 0 -25 -5 -25 -25 0 -20 -5 -25 -25 -25 -20 0 -25 -5
-25 -25 0 -20 -5 -25 -25 -25 -20 0 -25 -5 -25 -25 0 -20 -5 -25 -25 -25 -20
0 -25 -5 -25 -25 0 -20 -5 -25 -25 -25 -20 0 -25 -5 -25 -25 0 -20 -5 -25 -25
-25 -23 0 -25 -3 -25 -50 0 -47 -2 -50 -25 -50 -23 0 -25 -3 -25 -50 0 -47 -2
-50 -25 -50 -23 0 -25 -3 -25 -50 0 -47 -2 -50 -25 -50 l-25 0 0 -100 0 -100
-25 0 -25 0 0 -125 0 -125 -25 0 -25 0 0 -150 0 -150 25 0 25 0 0 -150 0 -150
25 0 c23 0 25 -3 25 -50 0 -47 2 -50 25 -50 20 0 25 -5 25 -25 l0 -25 3850 0
3850 0 0 75 c0 73 -1 75 -25 75 l-25 0 0 125 0 125 -25 0 c-20 0 -25 5 -25 25
0 20 -5 25 -25 25 -24 0 -25 2 -25 75 0 73 -1 75 -25 75 -20 0 -25 5 -25 25 0
20 -5 25 -25 25 l-25 0 0 100 0 100 -25 0 c-23 0 -25 3 -25 50 0 47 -2 50 -25
50 l-25 0 0 100 0 100 -25 0 c-23 0 -25 3 -25 50 0 47 -2 50 -25 50 -23 0 -25
3 -25 50 0 47 -2 50 -25 50 -20 0 -25 5 -25 25 0 20 -5 25 -25 25 -24 0 -25 2
-25 75 0 73 -1 75 -25 75 -20 0 -25 5 -25 25 0 20 -5 25 -25 25 -23 0 -25 3
-25 50 0 47 -2 50 -25 50 -23 0 -25 3 -25 50 0 46 -2 50 -24 50 -13 0 -27 -6
-29 -12 -3 -7 -3 4 0 24 5 36 4 38 -21 38 -25 0 -26 3 -26 50 0 47 -2 50 -25
50 -23 0 -25 3 -25 50 0 47 -2 50 -25 50 -24 0 -25 2 -25 75 0 73 -1 75 -25
75 -24 0 -25 2 -25 75 0 73 -1 75 -25 75 -20 0 -25 5 -25 25 0 20 -5 25 -25
25 -24 0 -25 2 -25 75 0 73 1 75 25 75 l25 0 0 200 0 200 -25 0 c-20 0 -25 5
-25 25 0 20 -5 25 -25 25 l-25 0 0 350 0 350 -25 0 -25 0 0 250 0 250 -25 0
-25 0 0 300 0 300 -25 0 c-23 0 -25 3 -25 50 0 47 2 50 25 50 20 0 25 5 25 25
0 20 5 25 25 25 23 0 25 3 25 50 0 47 2 50 25 50 20 0 25 5 25 25 0 20 5 25
25 25 23 0 25 3 25 50 0 47 2 50 25 50 23 0 25 3 25 50 0 47 2 50 25 50 l25 0
0 150 0 150 -25 0 c-20 0 -25 5 -25 25 0 20 -5 25 -25 25 -23 0 -25 3 -25 50
0 47 -2 50 -25 50 -23 0 -25 3 -25 50 l0 50 -50 0 c-47 0 -50 2 -50 25 0 20
-5 25 -25 25 -20 0 -25 5 -25 25 0 20 -5 25 -25 25 -20 0 -25 5 -25 25 0 23
-3 25 -50 25 -47 0 -50 2 -50 25 0 24 -2 25 -75 25 -73 0 -75 1 -75 25 0 24
-2 25 -75 25 -73 0 -75 1 -75 25 l0 25 -125 0 -125 0 0 -25 c0 -23 -3 -25 -50
-25 -47 0 -50 2 -50 25 0 20 -5 25 -25 25 -20 0 -25 5 -25 25 0 20 -5 25 -25
25 -20 0 -25 5 -25 25 0 20 -5 25 -25 25 -20 0 -25 5 -25 25 0 20 -5 25 -25
25 -20 0 -25 5 -25 25 0 20 -5 25 -25 25 -20 0 -25 5 -25 25 0 20 -5 25 -25
25 -20 0 -25 5 -25 25 0 20 -5 25 -25 25 -20 0 -25 5 -25 25 0 20 -5 25 -25
25 -20 0 -25 5 -25 25 0 20 -5 25 -25 25 -20 0 -25 5 -25 25 0 23 -3 25 -50
25 -47 0 -50 2 -50 25 0 23 -3 25 -50 25 -47 0 -50 2 -50 25 0 23 -3 25 -50
25 -47 0 -50 1 -50 26 0 26 -1 26 -62 22 -35 -3 -57 -3 -50 0 6 2 12 15 12 28
0 23 -2 24 -75 24 -73 0 -75 1 -75 25 0 24 -2 25 -75 25 -73 0 -75 1 -75 25
l0 25 -150 0 -150 0 0 25 0 25 -500 0 -500 0 0 -25z m700 -200 c0 -23 3 -25
50 -25 47 0 50 -2 50 -25 l0 -25 100 0 100 0 0 -25 c0 -23 3 -25 50 -25 47 0
50 -2 50 -25 0 -23 3 -25 50 -25 47 0 50 -2 50 -25 0 -20 5 -25 25 -25 20 0
25 -5 25 -25 0 -23 3 -25 50 -25 47 0 50 -2 50 -25 0 -20 5 -25 25 -25 20 0
25 -5 25 -25 0 -20 5 -25 25 -25 20 0 25 -5 25 -25 0 -20 5 -25 25 -25 20 0
25 -5 25 -25 0 -20 5 -25 25 -25 20 0 25 -5 25 -25 0 -20 5 -25 25 -25 20 0
25 -5 25 -25 0 -20 5 -25 25 -25 20 0 25 -5 25 -25 0 -20 5 -25 25 -25 20 0
25 -5 25 -25 0 -20 5 -25 25 -25 23 0 25 -3 25 -50 0 -47 2 -50 25 -50 23 0
25 -3 25 -50 0 -47 2 -50 25 -50 23 0 25 -3 25 -50 0 -47 2 -50 25 -50 l25 0
0 -175 0 -175 25 0 25 0 0 -125 0 -125 -25 0 -25 0 0 -125 0 -125 -25 0 c-24
0 -25 -2 -25 -75 l0 -75 -50 0 c-47 0 -50 2 -50 25 0 20 -5 25 -25 25 -20 0
-25 5 -25 25 0 20 -5 25 -25 25 -20 0 -25 5 -25 25 0 20 -5 25 -25 25 -20 0
-25 5 -25 25 0 20 -5 25 -25 25 -20 0 -25 5 -25 25 0 20 -5 25 -25 25 -20 0
-25 5 -25 25 0 20 -5 25 -25 25 -20 0 -25 5 -25 25 0 20 -5 25 -25 25 -20 0
-25 5 -25 25 0 23 -3 25 -50 25 -47 0 -50 2 -50 25 0 20 -5 25 -25 25 -20 0
-25 5 -25 25 0 23 -3 25 -50 25 -47 0 -50 2 -50 25 0 23 -3 25 -50 25 -47 0
-50 2 -50 25 0 20 -5 25 -25 25 -20 0 -25 5 -25 25 0 24 -2 25 -75 25 -73 0
-75 1 -75 25 0 24 -2 25 -75 25 -73 0 -75 1 -75 25 0 20 -5 25 -25 25 -20 0
-25 5 -25 25 l0 25 -150 0 -150 0 0 25 0 25 -100 0 -100 0 0 25 0 25 -325 0
-325 0 0 -25 0 -25 -125 0 -125 0 0 -25 c0 -24 -2 -25 -75 -25 -73 0 -75 -1
-75 -25 0 -23 -3 -25 -50 -25 -47 0 -50 -2 -50 -25 0 -23 -3 -25 -50 -25 -47
0 -50 -2 -50 -25 0 -23 -3 -25 -50 -25 -47 0 -50 -2 -50 -25 0 -23 -3 -25 -50
-25 -47 0 -50 -2 -50 -25 0 -23 -3 -25 -50 -25 -47 0 -50 -2 -50 -25 0 -23 -3
-25 -50 -25 -47 0 -50 -2 -50 -25 0 -20 -5 -25 -25 -25 -20 0 -25 -5 -25 -25
0 -20 -5 -25 -25 -25 -20 0 -25 -5 -25 -25 0 -20 -5 -25 -25 -25 -23 0 -25 3
-25 50 0 47 2 50 25 50 24 0 25 2 25 75 0 73 1 75 25 75 24 0 25 2 25 75 0 73
1 75 25 75 23 0 25 3 25 50 0 47 2 50 25 50 24 0 25 2 25 75 0 73 1 75 25 75
20 0 25 5 25 25 0 20 5 25 25 25 20 0 25 5 25 25 0 20 5 25 25 25 20 0 25 5
25 25 0 20 5 25 25 25 20 0 25 5 25 25 0 20 5 25 25 25 20 0 25 5 25 25 0 20
5 25 25 25 20 0 25 5 25 25 0 20 5 25 25 25 20 0 25 5 25 25 0 20 5 25 25 25
20 0 25 5 25 25 0 20 5 25 25 25 20 0 25 5 25 25 0 20 5 25 25 25 20 0 25 5
25 25 0 23 3 25 50 25 47 0 50 2 50 25 0 20 5 25 25 25 20 0 25 5 25 25 0 20
5 25 25 25 20 0 25 5 25 25 0 23 3 25 50 25 47 0 50 2 50 25 0 23 3 25 50 25
47 0 50 2 50 25 0 23 3 25 50 25 47 0 50 2 50 25 0 20 5 25 25 25 20 0 25 5
25 25 0 24 2 25 75 25 73 0 75 1 75 25 0 24 2 25 75 25 73 0 75 1 75 25 0 23
3 25 50 25 47 0 50 2 50 25 l0 25 350 0 350 0 0 -25z m-2100 -700 c0 -20 -5
-25 -25 -25 -20 0 -25 -5 -25 -25 0 -20 -5 -25 -25 -25 -20 0 -25 -5 -25 -25
0 -20 -5 -25 -25 -25 -20 0 -25 -5 -25 -25 0 -20 -5 -25 -25 -25 -20 0 -25 -5
-25 -25 0 -20 -5 -25 -25 -25 -23 0 -25 3 -25 50 0 47 2 50 25 50 20 0 25 5
25 25 0 20 5 25 25 25 20 0 25 5 25 25 0 20 5 25 25 25 20 0 25 5 25 25 0 23
3 25 50 25 47 0 50 -2 50 -25z m4200 -100 c0 -20 5 -25 25 -25 20 0 25 -5 25
-25 0 -23 3 -25 50 -25 47 0 50 -2 50 -25 0 -20 5 -25 25 -25 20 0 25 -5 25
-25 0 -20 5 -25 25 -25 20 0 25 -5 25 -25 0 -20 5 -25 25 -25 23 0 25 -3 25
-50 0 -47 2 -50 25 -50 l25 0 0 -150 0 -150 -25 0 c-20 0 -25 -5 -25 -25 0
-20 -5 -25 -25 -25 -23 0 -25 -3 -25 -50 0 -47 -2 -50 -25 -50 -20 0 -25 -5
-25 -25 0 -20 -5 -25 -25 -25 -20 0 -25 -5 -25 -25 0 -20 -5 -25 -25 -25 -23
0 -25 3 -25 50 0 47 -2 50 -25 50 l-25 0 0 150 0 150 -25 0 -25 0 0 100 0 100
-25 0 c-24 0 -25 2 -25 75 0 73 -1 75 -25 75 -20 0 -25 5 -25 25 0 20 -5 25
-25 25 -23 0 -25 3 -25 50 l0 50 75 0 c73 0 75 -1 75 -25z m-4600 -1050 c0
-20 -5 -25 -25 -25 -24 0 -25 -2 -25 -75 0 -73 -1 -75 -25 -75 -23 0 -25 -3
-25 -50 0 -47 -2 -50 -25 -50 -23 0 -25 -3 -25 -50 0 -47 -2 -50 -25 -50 -24
0 -25 -2 -25 -75 0 -73 -1 -75 -25 -75 l-25 0 0 -100 0 -100 -25 0 -25 0 0
-175 0 -175 -25 0 -25 0 0 100 0 100 -25 0 c-23 0 -25 3 -25 50 0 47 -2 50
-25 50 -24 0 -25 2 -25 75 0 73 1 75 25 75 24 0 25 2 25 75 0 73 1 75 25 75
23 0 25 3 25 50 0 47 2 50 25 50 23 0 25 3 25 50 0 47 2 50 25 50 20 0 25 5
25 25 0 20 5 25 25 25 23 0 25 3 25 50 0 47 2 50 25 50 20 0 25 5 25 25 0 20
5 25 25 25 20 0 25 5 25 25 0 20 5 25 25 25 20 0 25 5 25 25 0 20 5 25 25 25
20 0 25 -5 25 -25z m1750 -75 c0 -47 2 -50 25 -50 l25 0 0 -125 0 -125 25 0
25 0 0 -175 0 -175 -25 0 c-24 0 -25 -2 -25 -75 0 -73 1 -75 25 -75 20 0 25
-5 25 -25 0 -20 5 -25 25 -25 20 0 25 -5 25 -25 0 -20 5 -25 25 -25 l25 0 0
125 0 125 25 0 c20 0 25 -5 25 -25 0 -20 5 -25 25 -25 l25 0 0 300 0 300 25 0
25 0 0 -125 0 -125 25 0 25 0 0 -125 0 -125 -25 0 c-20 0 -25 -5 -25 -25 0
-20 5 -25 25 -25 20 0 25 -5 25 -25 0 -20 5 -25 25 -25 20 0 25 5 25 25 0 20
5 25 25 25 20 0 25 -5 25 -25 0 -20 5 -25 25 -25 23 0 25 3 25 50 0 47 2 50
25 50 20 0 25 -5 25 -25 0 -20 5 -25 25 -25 20 0 25 -5 25 -25 0 -20 5 -25 25
-25 20 0 25 -5 25 -25 0 -20 5 -25 25 -25 20 0 25 -5 25 -25 0 -20 -5 -25 -25
-25 -20 0 -25 -5 -25 -25 0 -20 -5 -25 -25 -25 -20 0 -25 -5 -25 -25 0 -20 -5
-25 -25 -25 -20 0 -25 -5 -25 -25 0 -23 3 -25 50 -25 47 0 50 2 50 25 l0 25
250 0 250 0 0 -25 c0 -24 2 -25 75 -25 73 0 75 -1 75 -25 0 -23 3 -25 50 -25
47 0 50 2 50 25 0 20 -5 25 -25 25 -20 0 -25 5 -25 25 0 20 -5 25 -25 25 -20
0 -25 5 -25 25 0 23 -3 25 -50 25 l-50 0 0 150 0 150 25 0 25 0 0 -100 0 -100
25 0 c23 0 25 -3 25 -50 0 -47 2 -50 25 -50 20 0 25 -5 25 -25 0 -23 3 -25 50
-25 47 0 50 -2 50 -25 0 -20 5 -25 25 -25 20 0 25 -5 25 -25 0 -23 -3 -25 -50
-25 -47 0 -50 -2 -50 -25 0 -23 3 -25 50 -25 l50 0 0 -50 c0 -47 2 -50 25 -50
20 0 25 -5 25 -25 0 -20 5 -25 25 -25 l25 0 0 -100 0 -100 25 0 c20 0 25 -5
25 -25 0 -20 5 -25 25 -25 20 0 25 5 25 25 0 20 5 25 25 25 23 0 25 3 25 50 0
47 2 50 25 50 24 0 25 -2 25 -75 0 -73 -1 -75 -25 -75 l-25 0 0 -100 0 -100
-25 0 -25 0 0 -100 0 -100 -25 0 c-24 0 -25 -2 -25 -75 0 -73 -1 -75 -25 -75
-24 0 -25 -2 -25 -75 0 -73 -1 -75 -25 -75 l-25 0 0 -100 0 -100 -25 0 -25 0
0 -100 0 -100 -25 0 -25 0 0 -100 0 -100 -25 0 c-23 0 -25 -3 -25 -50 0 -47
-2 -50 -25 -50 -20 0 -25 -5 -25 -25 0 -20 -5 -25 -25 -25 -23 0 -25 -3 -25
-50 0 -47 -2 -50 -25 -50 -20 0 -25 -5 -25 -25 0 -20 -5 -25 -25 -25 -20 0
-25 -5 -25 -25 0 -20 -5 -25 -25 -25 -20 0 -25 -5 -25 -25 0 -20 -5 -25 -25
-25 -20 0 -25 -5 -25 -25 0 -20 -5 -25 -25 -25 -20 0 -25 -5 -25 -25 0 -20 -5
-25 -25 -25 -20 0 -25 -5 -25 -25 0 -20 -5 -25 -25 -25 -20 0 -25 -5 -25 -25
0 -23 -3 -25 -50 -25 -47 0 -50 -2 -50 -25 0 -23 -3 -25 -50 -25 -47 0 -50 -2
-50 -25 0 -23 -3 -25 -50 -25 -47 0 -50 -2 -50 -25 0 -23 -3 -25 -50 -25 -47
0 -50 -2 -50 -25 0 -20 -5 -25 -25 -25 -20 0 -25 -5 -25 -25 0 -24 -2 -25 -75
-25 -73 0 -75 -1 -75 -25 0 -24 -2 -25 -75 -25 -73 0 -75 -1 -75 -25 l0 -25
-225 0 -225 0 0 25 c0 23 -3 25 -50 25 -47 0 -50 2 -50 25 0 23 -3 25 -50 25
-47 0 -50 2 -50 25 0 20 -5 25 -25 25 -20 0 -25 5 -25 25 0 20 -5 25 -25 25
-20 0 -25 5 -25 25 0 23 -3 25 -50 25 -47 0 -50 -2 -50 -25 0 -24 -2 -25 -75
-25 -73 0 -75 -1 -75 -25 l0 -25 -125 0 -125 0 0 -25 c0 -24 -2 -25 -75 -25
-73 0 -75 -1 -75 -25 l0 -25 -100 0 -100 0 0 -25 c0 -24 -2 -25 -75 -25 -73 0
-75 -1 -75 -25 l0 -25 -100 0 -100 0 0 -25 c0 -23 -3 -25 -50 -25 -47 0 -50
-2 -50 -25 0 -23 -3 -25 -50 -25 -47 0 -50 -2 -50 -25 l0 -25 -100 0 -100 0 0
26 c0 23 -3 26 -28 22 -26 -4 -28 -2 -24 24 4 28 3 28 -47 28 -48 0 -51 2 -51
25 0 20 -5 25 -25 25 -20 0 -25 5 -25 25 0 20 -5 25 -25 25 -20 0 -25 5 -25
25 0 20 -5 25 -25 25 -20 0 -25 5 -25 25 0 20 -5 25 -25 25 -23 0 -25 3 -25
50 0 46 -2 50 -24 50 -13 0 -27 -6 -29 -12 -3 -7 -3 4 0 24 5 36 4 38 -21 38
-21 0 -26 5 -26 25 0 20 -5 25 -25 25 -24 0 -25 2 -25 75 0 73 -1 75 -25 75
-24 0 -25 2 -25 75 0 73 1 75 25 75 20 0 25 5 25 25 0 20 5 25 25 25 20 0 25
5 25 25 0 20 5 25 25 25 20 0 25 5 25 25 0 20 5 25 25 25 20 0 25 5 25 25 0
20 5 25 25 25 20 0 25 5 25 25 0 20 5 25 25 25 23 0 25 3 25 50 0 47 2 50 25
50 23 0 25 3 25 50 0 47 2 50 25 50 23 0 25 3 25 50 0 47 2 50 25 50 23 0 25
3 25 50 0 47 2 50 25 50 20 0 25 5 25 25 0 20 -5 25 -25 25 -24 0 -25 2 -25
75 0 73 1 75 25 75 23 0 25 3 25 50 0 47 -2 50 -25 50 l-25 0 0 225 0 225 25
0 25 0 0 125 0 125 25 0 c20 0 25 5 25 25 0 20 5 25 25 25 24 0 25 -2 25 -75
0 -73 1 -75 25 -75 24 0 25 2 25 75 0 73 1 75 25 75 24 0 25 2 25 75 0 73 1
75 25 75 20 0 25 5 25 25 0 20 5 25 25 25 l25 0 0 -100 0 -100 25 0 c20 0 25
-5 25 -25 0 -20 5 -25 25 -25 20 0 25 5 25 25 0 20 5 25 25 25 20 0 25 -5 25
-25 0 -20 5 -25 25 -25 24 0 25 -2 25 -75 0 -73 -1 -75 -25 -75 l-25 0 0 -150
0 -150 -25 0 -25 0 0 -100 0 -100 -25 0 c-23 0 -25 -3 -25 -50 0 -47 2 -50 25
-50 20 0 25 -5 25 -25 0 -20 5 -25 25 -25 20 0 25 5 25 25 0 23 3 25 50 25
l50 0 0 -75 c0 -73 1 -75 25 -75 24 0 25 -2 25 -75 0 -73 1 -75 25 -75 23 0
25 -3 25 -50 0 -47 2 -50 25 -50 20 0 25 5 25 25 0 20 5 25 25 25 20 0 25 5
25 25 0 20 5 25 25 25 23 0 25 -3 25 -50 0 -47 2 -50 25 -50 24 0 25 2 25 75
0 73 -1 75 -25 75 l-25 0 0 100 0 100 -25 0 -25 0 0 125 0 125 -25 0 -25 0 0
225 0 225 25 0 25 0 0 200 0 200 25 0 c24 0 25 2 25 75 0 73 1 75 25 75 20 0
25 -5 25 -25 0 -20 5 -25 25 -25 20 0 25 5 25 25 0 20 5 25 25 25 l25 0 0 150
0 150 25 0 c24 0 25 2 25 75 0 73 1 75 25 75 24 0 25 2 25 75 0 73 1 75 25 75
20 0 25 5 25 25 0 20 5 25 25 25 23 0 25 -3 25 -50 0 -47 -2 -50 -25 -50 -23
0 -25 -3 -25 -50 0 -47 -2 -50 -25 -50 -24 0 -25 -2 -25 -75 0 -73 -1 -75 -25
-75 l-25 0 0 -100 0 -100 25 0 c20 0 25 -5 25 -25 0 -20 5 -25 25 -25 20 0 25
5 25 25 0 20 5 25 25 25 23 0 25 3 25 50 0 47 2 50 25 50 20 0 25 5 25 25 l0
25 150 0 150 0 0 -50 c0 -47 2 -50 25 -50 23 0 25 -3 25 -50 0 -47 2 -50 25
-50 20 0 25 -5 25 -25 0 -20 5 -25 25 -25 23 0 25 -3 25 -50 0 -47 2 -50 25
-50 20 0 25 5 25 25 0 20 5 25 25 25 24 0 25 2 25 75 0 73 -1 75 -25 75 -20 0
-25 5 -25 25 0 23 -3 25 -50 25 -47 0 -50 2 -50 25 0 24 2 25 75 25 73 0 75 1
75 25 0 20 -5 25 -25 25 -20 0 -25 5 -25 25 0 20 -5 25 -25 25 -20 0 -25 5
-25 25 0 20 -5 25 -25 25 l-25 0 0 100 0 100 25 0 25 0 0 100 0 100 25 0 c23
0 25 3 25 50 0 47 2 50 25 50 24 0 25 2 25 75 l0 75 50 0 c47 0 50 -2 50 -25
0 -20 5 -25 25 -25 20 0 25 5 25 25 0 20 5 25 25 25 20 0 25 -5 25 -25 0 -20
-5 -25 -25 -25 -24 0 -25 -2 -25 -75 0 -73 -1 -75 -25 -75 l-25 0 0 -175 0
-175 -25 0 -25 0 0 -100 0 -100 25 0 c23 0 25 -3 25 -50 0 -47 2 -50 25 -50
23 0 25 3 25 50 0 47 2 50 25 50 l25 0 0 100 0 100 25 0 25 0 0 175 0 175 25
0 c24 0 25 2 25 75 0 73 1 75 25 75 23 0 25 3 25 50 0 47 2 50 25 50 23 0 25
-3 25 -50z m-500 -25 c0 -20 -5 -25 -25 -25 -23 0 -25 -3 -25 -50 0 -47 -2
-50 -25 -50 -23 0 -25 -3 -25 -50 0 -47 -2 -50 -25 -50 l-25 0 0 -100 0 -100
-25 0 -25 0 0 -100 0 -100 -50 0 -50 0 0 100 0 100 25 0 c23 0 25 3 25 50 0
47 2 50 25 50 24 0 25 2 25 75 0 73 1 75 25 75 23 0 25 3 25 50 0 47 2 50 25
50 20 0 25 5 25 25 0 20 5 25 25 25 20 0 25 5 25 25 0 20 5 25 25 25 20 0 25
-5 25 -25z m1400 -225 c0 -47 2 -50 25 -50 23 0 25 -3 25 -50 0 -47 2 -50 25
-50 24 0 25 -2 25 -75 0 -73 1 -75 25 -75 24 0 25 -2 25 -75 0 -73 1 -75 25
-75 23 0 25 -3 25 -50 l0 -50 -100 0 -100 0 0 25 c0 20 -5 25 -25 25 l-25 0 0
275 0 275 25 0 c23 0 25 -3 25 -50z m-1750 -375 c0 -20 -5 -25 -25 -25 -20 0
-25 -5 -25 -25 0 -20 -5 -25 -25 -25 -23 0 -25 3 -25 50 l0 50 50 0 c47 0 50
-2 50 -25z m3400 -1800 c0 -20 5 -25 25 -25 20 0 25 -5 25 -25 0 -20 5 -25 25
-25 20 0 25 -5 25 -25 0 -23 3 -25 50 -25 47 0 50 2 50 25 0 18 5 25 19 25 22
0 31 -19 31 -66 0 -30 3 -34 25 -34 24 0 25 -2 25 -75 0 -73 1 -75 25 -75 23
0 25 -3 25 -50 0 -47 2 -50 25 -50 24 0 25 -2 25 -75 0 -73 1 -75 25 -75 24 0
25 -2 25 -75 0 -73 1 -75 25 -75 24 0 25 -2 25 -75 0 -73 1 -75 25 -75 24 0
25 -2 25 -75 0 -73 1 -75 25 -75 l25 0 0 -100 0 -100 25 0 c23 0 25 -3 25 -50
0 -47 2 -50 25 -50 l25 0 0 -125 0 -125 -25 0 c-23 0 -25 -3 -25 -50 0 -47 -2
-50 -25 -50 -20 0 -25 -5 -25 -25 0 -20 -5 -25 -25 -25 -20 0 -25 -5 -25 -25
0 -20 -5 -25 -25 -25 -20 0 -25 -5 -25 -25 0 -20 -5 -25 -25 -25 -20 0 -25 -5
-25 -25 0 -20 -5 -25 -25 -25 -20 0 -25 -5 -25 -25 0 -20 -5 -25 -25 -25 -20
0 -25 -5 -25 -25 0 -20 -5 -25 -25 -25 -20 0 -25 -5 -25 -25 0 -20 -5 -25 -25
-25 -20 0 -25 -5 -25 -25 0 -24 -2 -25 -75 -25 -73 0 -75 -1 -75 -25 0 -23 -3
-25 -50 -25 -47 0 -50 -2 -50 -25 0 -24 -2 -25 -75 -25 -73 0 -75 1 -75 24 0
23 -5 25 -47 28 -41 3 -48 6 -51 26 -3 18 -10 22 -37 22 -46 0 -65 9 -65 31 0
14 -7 19 -25 19 -20 0 -25 5 -25 25 0 20 -5 25 -25 25 -20 0 -25 5 -25 25 0
20 -5 25 -25 25 -20 0 -25 5 -25 25 0 20 -5 25 -25 25 -20 0 -25 5 -25 25 0
23 -3 25 -50 25 -47 0 -50 2 -50 25 0 23 -3 25 -50 25 -47 0 -50 2 -50 25 0
20 -5 25 -25 25 -20 0 -25 5 -25 25 0 20 -5 25 -25 25 -20 0 -25 5 -25 25 0
24 -2 25 -75 25 -73 0 -75 1 -75 25 0 20 -5 25 -25 25 -20 0 -25 5 -25 25 0
20 -5 25 -25 25 -20 0 -25 5 -25 25 0 23 -3 25 -50 25 l-50 0 0 100 0 100 25
0 c23 0 25 3 25 50 0 47 2 50 25 50 20 0 25 5 25 25 0 20 5 25 25 25 20 0 25
5 25 25 0 20 5 25 25 25 20 0 25 5 25 25 0 20 5 25 25 25 20 0 25 5 25 25 0
20 5 25 25 25 20 0 25 5 25 25 0 20 5 25 25 25 20 0 25 5 25 25 0 20 5 25 25
25 20 0 25 5 25 25 0 20 5 25 25 25 23 0 25 3 25 50 0 47 2 50 25 50 20 0 25
5 25 25 0 20 5 25 25 25 20 0 25 -5 25 -25 0 -20 5 -25 25 -25 20 0 25 5 25
25 0 20 5 25 25 25 20 0 25 5 25 25 0 20 5 25 25 25 21 0 25 5 25 31 0 38 16
69 35 69 9 0 15 10 15 25 0 23 3 25 50 25 47 0 50 -2 50 -25 0 -20 5 -25 25
-25 20 0 25 -5 25 -25 0 -20 5 -25 25 -25 20 0 25 -5 25 -25 0 -20 5 -25 25
-25 20 0 25 5 25 25 0 20 5 25 25 25 24 0 25 2 25 75 0 73 1 75 25 75 20 0 25
5 25 25 0 20 5 25 25 25 20 0 25 -5 25 -25 0 -23 3 -25 50 -25 l50 0 0 100 0
100 -25 0 -25 0 0 100 0 100 -25 0 c-20 0 -25 5 -25 25 0 20 5 25 25 25 20 0
25 -5 25 -25z m-1500 -1125 c0 -47 -2 -50 -25 -50 -23 0 -25 -3 -25 -50 0 -47
-2 -50 -25 -50 -20 0 -25 -5 -25 -25 0 -23 -3 -25 -50 -25 -47 0 -50 2 -50 25
0 23 -3 25 -50 25 -47 0 -50 2 -50 25 0 24 -2 25 -75 25 -73 0 -75 1 -75 25
l0 25 100 0 100 0 0 25 0 25 100 0 100 0 0 25 c0 20 5 25 25 25 23 0 25 -3 25
-50z"/>
<path d="M3200 7025 c0 -23 -3 -25 -50 -25 -47 0 -50 -2 -50 -25 0 -20 -5 -25
-25 -25 -20 0 -25 -5 -25 -25 0 -20 -5 -25 -25 -25 l-25 0 0 -100 0 -100 25 0
c23 0 25 -3 25 -50 0 -47 2 -50 25 -50 20 0 25 -5 25 -25 0 -20 5 -25 25 -25
20 0 25 -5 25 -25 0 -20 5 -25 25 -25 20 0 25 -5 25 -25 0 -20 5 -25 25 -25
20 0 25 -5 25 -25 0 -23 3 -25 50 -25 47 0 50 2 50 25 0 23 3 25 50 25 47 0
50 2 50 25 0 23 3 25 50 25 47 0 50 2 50 25 0 23 3 25 50 25 47 0 50 2 50 25
0 23 3 25 50 25 47 0 50 2 50 25 0 20 5 25 25 25 20 0 25 5 25 25 0 23 3 25
50 25 47 0 50 2 50 25 0 20 5 25 25 25 24 0 25 2 25 75 0 73 -1 75 -25 75 -20
0 -25 5 -25 25 0 23 -3 25 -50 25 -47 0 -50 2 -50 25 0 23 -3 25 -50 25 -47 0
-50 2 -50 25 l0 25 -250 0 -250 0 0 -25z"/>
<path d="M2900 4425 c0 -20 5 -25 25 -25 20 0 25 5 25 25 0 20 -5 25 -25 25
-20 0 -25 -5 -25 -25z"/>
<path d="M2350 4275 c0 -20 -5 -25 -25 -25 -20 0 -25 -5 -25 -25 0 -23 -3 -25
-50 -25 -47 0 -50 -2 -50 -25 0 -20 -5 -25 -25 -25 -20 0 -25 -5 -25 -25 0
-20 -5 -25 -25 -25 -24 0 -25 -2 -25 -75 0 -73 1 -75 25 -75 23 0 25 -3 25
-50 0 -47 2 -50 25 -50 20 0 25 -5 25 -25 0 -20 5 -25 25 -25 20 0 25 -5 25
-25 0 -20 5 -25 25 -25 20 0 25 -5 25 -25 0 -24 2 -25 75 -25 73 0 75 -1 75
-25 0 -24 2 -25 75 -25 73 0 75 1 75 25 0 23 3 25 50 25 47 0 50 2 50 25 0 20
5 25 25 25 20 0 25 5 25 25 0 20 5 25 25 25 20 0 25 5 25 25 0 20 -5 25 -25
25 -20 0 -25 -5 -25 -25 0 -20 -5 -25 -25 -25 -20 0 -25 -5 -25 -25 0 -23 -3
-25 -50 -25 -47 0 -50 2 -50 25 0 20 5 25 25 25 20 0 25 5 25 25 0 20 5 25 25
25 23 0 25 3 25 50 0 47 2 50 25 50 24 0 25 2 25 75 0 73 1 75 25 75 20 0 25
-5 25 -25 0 -20 5 -25 25 -25 20 0 25 -5 25 -25 0 -20 5 -25 25 -25 20 0 25 5
25 25 0 20 -5 25 -25 25 -20 0 -25 5 -25 25 0 20 -5 25 -25 25 -20 0 -25 5
-25 25 0 20 -5 25 -25 25 -20 0 -25 5 -25 25 0 20 -5 25 -25 25 -20 0 -25 5
-25 25 0 23 -3 25 -50 25 -47 0 -50 2 -50 25 l0 25 -125 0 -125 0 0 -25z m0
-100 c0 -23 3 -25 50 -25 l50 0 0 -50 0 -50 -50 0 -50 0 0 50 c0 47 -2 50 -25
50 -20 0 -25 -5 -25 -25 0 -20 -5 -25 -25 -25 -24 0 -25 -2 -25 -75 0 -73 1
-75 25 -75 23 0 25 -3 25 -50 0 -47 2 -50 25 -50 20 0 25 -5 25 -25 0 -20 5
-25 25 -25 20 0 25 -5 25 -25 0 -23 -3 -25 -50 -25 -47 0 -50 2 -50 25 0 20
-5 25 -25 25 -20 0 -25 5 -25 25 0 20 -5 25 -25 25 -23 0 -25 3 -25 50 0 47
-2 50 -25 50 -23 0 -25 3 -25 50 0 47 2 50 25 50 20 0 25 5 25 25 0 20 5 25
25 25 20 0 25 5 25 25 0 20 5 25 25 25 20 0 25 5 25 25 0 20 5 25 25 25 20 0
25 -5 25 -25z m250 -450 c0 -24 -2 -25 -75 -25 -73 0 -75 1 -75 25 0 24 2 25
75 25 73 0 75 -1 75 -25z"/>
<path d="M4000 4175 l0 -125 25 0 c20 0 25 5 25 25 0 24 2 25 75 25 73 0 75 1
75 25 0 20 5 25 25 25 20 0 25 5 25 25 0 20 5 25 25 25 20 0 25 5 25 25 l0 25
-125 0 -125 0 0 25 c0 20 -5 25 -25 25 l-25 0 0 -125z"/>
<path d="M4250 4075 c0 -23 -3 -25 -50 -25 -47 0 -50 -2 -50 -25 0 -20 -5 -25
-25 -25 -20 0 -25 -5 -25 -25 0 -20 -5 -25 -25 -25 -20 0 -25 -5 -25 -25 0
-20 5 -25 25 -25 20 0 25 5 25 25 0 20 5 25 25 25 20 0 25 5 25 25 0 23 3 25
50 25 47 0 50 -2 50 -25 0 -20 -5 -25 -25 -25 l-25 0 0 -150 0 -150 25 0 c20
0 25 -5 25 -25 0 -20 5 -25 25 -25 20 0 25 -5 25 -25 l0 -25 125 0 125 0 0 25
c0 20 5 25 25 25 20 0 25 5 25 25 0 20 5 25 25 25 20 0 25 5 25 25 0 20 5 25
25 25 l25 0 0 100 0 100 25 0 c20 0 25 -5 25 -25 0 -20 5 -25 25 -25 l25 0 0
-100 0 -100 -25 0 c-20 0 -25 -5 -25 -25 0 -20 5 -25 25 -25 20 0 25 5 25 25
0 20 5 25 25 25 20 0 25 -5 25 -25 0 -20 5 -25 25 -25 20 0 25 -5 25 -25 0
-20 5 -25 25 -25 23 0 25 3 25 50 0 47 -2 50 -25 50 -24 0 -25 2 -25 75 0 73
-1 75 -25 75 -20 0 -25 5 -25 25 0 20 -5 25 -25 25 -20 0 -25 5 -25 25 0 20
-5 25 -25 25 -20 0 -25 5 -25 25 0 20 -5 25 -25 25 -20 0 -25 5 -25 25 0 20
-5 25 -25 25 -20 0 -25 5 -25 25 0 24 -2 25 -75 25 -73 0 -75 1 -75 25 l0 25
-125 0 -125 0 0 -25z m50 -50 c0 -20 -5 -25 -25 -25 -20 0 -25 5 -25 25 0 20
5 25 25 25 20 0 25 -5 25 -25z m150 -125 l0 -50 -50 0 -50 0 0 50 0 50 50 0
50 0 0 -50z"/>
<path d="M4150 3575 c0 -20 5 -25 25 -25 20 0 25 -5 25 -25 0 -20 5 -25 25
-25 20 0 25 -5 25 -25 l0 -25 200 0 200 0 0 25 c0 20 5 25 25 25 20 0 25 5 25
25 0 20 -5 25 -25 25 -20 0 -25 -5 -25 -25 l0 -25 -200 0 -200 0 0 25 c0 20
-5 25 -25 25 -20 0 -25 5 -25 25 0 20 -5 25 -25 25 -20 0 -25 -5 -25 -25z"/>
<path d="M3150 3350 c0 -47 -2 -50 -25 -50 -23 0 -25 -3 -25 -50 0 -47 -2 -50
-25 -50 -23 0 -25 -3 -25 -50 0 -47 2 -50 25 -50 23 0 25 -3 25 -50 0 -47 2
-50 25 -50 23 0 25 3 25 50 0 47 -2 50 -25 50 -23 0 -25 3 -25 50 0 47 2 50
25 50 23 0 25 3 25 50 0 47 2 50 25 50 23 0 25 3 25 50 0 47 -2 50 -25 50 -23
0 -25 -3 -25 -50z"/>
<path d="M3300 3275 c0 -23 -3 -25 -50 -25 l-50 0 0 -50 c0 -47 2 -50 25 -50
23 0 25 -3 25 -50 0 -47 2 -50 25 -50 20 0 25 -5 25 -25 0 -20 5 -25 25 -25
20 0 25 5 25 25 0 20 5 25 25 25 23 0 25 3 25 50 0 47 -2 50 -25 50 -24 0 -25
2 -25 75 0 73 -1 75 -25 75 -20 0 -25 -5 -25 -25z"/>
<path d="M1300 3225 c0 -20 -5 -25 -25 -25 -23 0 -25 -3 -25 -50 0 -47 -2 -50
-25 -50 -24 0 -25 -2 -25 -75 0 -73 -1 -75 -25 -75 -23 0 -25 -3 -25 -50 0
-47 2 -50 25 -50 23 0 25 3 25 50 0 47 2 50 25 50 24 0 25 2 25 75 0 73 1 75
25 75 23 0 25 3 25 50 0 47 2 50 25 50 20 0 25 5 25 25 0 20 -5 25 -25 25 -20
0 -25 -5 -25 -25z"/>
<path d="M2000 2600 c0 -47 2 -50 25 -50 20 0 25 -5 25 -25 0 -20 5 -25 25
-25 23 0 25 -3 25 -50 0 -47 2 -50 25 -50 20 0 25 -5 25 -25 0 -20 5 -25 25
-25 20 0 25 -5 25 -25 0 -20 5 -25 25 -25 23 0 25 -3 25 -50 0 -47 2 -50 25
-50 20 0 25 -5 25 -25 0 -20 5 -25 25 -25 20 0 25 -5 25 -25 0 -20 5 -25 25
-25 20 0 25 -5 25 -25 0 -20 5 -25 25 -25 20 0 25 -5 25 -25 0 -20 5 -25 25
-25 20 0 25 -5 25 -25 0 -20 5 -25 25 -25 20 0 25 -5 25 -25 0 -20 5 -25 25
-25 20 0 25 -5 25 -25 0 -20 5 -25 25 -25 20 0 25 -5 25 -25 0 -20 5 -25 25
-25 20 0 25 5 25 25 0 20 -5 25 -25 25 -20 0 -25 5 -25 25 0 20 -5 25 -25 25
-20 0 -25 5 -25 25 0 20 -5 25 -25 25 -20 0 -25 5 -25 25 0 20 -5 25 -25 25
-20 0 -25 5 -25 25 0 20 -5 25 -25 25 -20 0 -25 5 -25 25 0 20 -5 25 -25 25
-20 0 -25 5 -25 25 0 20 -5 25 -25 25 -23 0 -25 3 -25 50 0 47 -2 50 -25 50
-20 0 -25 5 -25 25 0 20 -5 25 -25 25 -20 0 -25 5 -25 25 0 20 -5 25 -25 25
-20 0 -25 5 -25 25 0 20 -5 25 -25 25 -23 0 -25 3 -25 50 0 47 -2 50 -25 50
-23 0 -25 3 -25 50 0 47 -2 50 -25 50 -20 0 -25 5 -25 25 0 20 -5 25 -25 25
-23 0 -25 -3 -25 -50z"/>
<path d="M3150 2525 c0 -24 2 -25 75 -25 73 0 75 -1 75 -25 0 -23 3 -25 50
-25 47 0 50 -2 50 -25 0 -20 5 -25 25 -25 20 0 25 5 25 25 0 20 -5 25 -25 25
-20 0 -25 5 -25 25 0 20 -5 25 -25 25 -20 0 -25 5 -25 25 l0 25 -100 0 -100 0
0 -25z"/>
</g>
</svg>
